<?xml version="1.0"?>
<svg xmlns:rdf="http://www.w3.org/1999/02/22-rdf-syntax-ns#" xmlns="http://www.w3.org/2000/svg" xmlns:cc="http://web.resource.org/cc/" xmlns:dc="http://purl.org/dc/elements/1.1/" xmlns:svg="http://www.w3.org/2000/svg" id="svg2" viewBox="0 0 376.59 514.98" version="1.0">
  <g id="layer1" transform="translate(21.114 19.31)">
    <path id="path1882" d="m203.52 448.91c-3.62-2.22-0.62-7.58-1.21-11.14 0.2-2.72 2.02-6.08-1.98-6.55-4.4-3.28-8.07-7.38-12.41-10.72-4.94-4.45-9.19-9.73-11.52-16.01-1.23-2.18-1.32-5.17-3.45-6.58 0.2-4.73-6.07-3.7-9.41-4.03-4.61 0.17-8.97-1.51-13.59-1.33-5.07 0.05-9.97-1.47-15.06-1.19-5.88-0.11-11.79-1.18-17.63-0.73-6.51-0.85-13.13-0.72-19.641-1.66-7.406-0.41-14.819-0.61-22.228-0.96-3.573-1.2-7.87-0.65-6.347 4.2-0.727 6.18-0.263 12.43-1.202 18.59-0.751 4.42 0.62 9.73-1.483 13.62-2.395 0.07-0.753 4.3-3.603 4.32-0.774 2.64-1.902 5.73-1.861 9.21 0.614 1.86-1.3 6.68-3.565 4.62-0.214-4.41 1.104-9.24 1.875-13.72 0.74-5.4 1.518-10.81 1.907-16.24 0.965-3.13 0.571-5.26 0.886-8.16-0.059-5.37 0.024-10.73 1.13-16.01-1.491-3.17-8.031-0.24-11.452-2.14-3.84-1.19-7.502-1.24-10.775-3.47-4.18-3.3-7.231-7.89-9.834-12.47-2.264-3.94-3.805-8.12-4.142-12.64-1.451-9.35-0.825-18.82 0.125-28.17 0.125-4.21 1.04-8.64 0.865-12.67 0.916-3.66 1.325-7.52 2.321-11.28 0.98-4.08 2.017-7.84 3.697-11.69-2.474-1.33-4.696-4.37-6.885-6.53 2.537-3.73 3.665-8.06 5.101-12.29 1.886-3.2 2.9-6.95 4.507-10.15 1.477-4.37 3.608-8.69 6.301-12.52 2.083-4.6 5.41-8.45 8.352-12.48 3.269-2.62 5.844-5.99 8.97-8.79 2.445-2.8 5.919-4.78 8.601-7.28 4.218-2.29 8.159-5.18 12.306-7.67 5.396-2.61 10.666-5.63 16.578-6.96 6.236-1.34 12.276-3.33 18.626-3.98 4.59-0.99 9.26-1.73 13.95-1.95 2.13-0.02-3.62-2.07-4.04-3.47-5.52-3.89-10.22-8.98-14.82-13.81-2.29-3.44-5.6-6.65-7.51-10.37-2.53-3.43-3.65-7.33-5.386-11.19-1.971-2.55-1.563-6.27-2.692-8.92-0.853-1.78 0.495-7.68-1.261-7.6-3.786-0.51-8.971-0.44-11.877-3.98-2.738-3.3-5.033-7.2-6.078-11.39-1.407-3.73-0.986-8.38-0.375-12.31 0.78-2.87 1.762-6.4 4.476-7.62 3.883-2.65 8.788-2.27 12.892-0.36 4.04 1.37-3.836-3.79-4.197-5.69-3.645-2.08-6.967-6.2-4.084-10.384-2.152-3.418-6.81-5.811-6.279-10.401-0.638-2.962 3.765-4.536 3.121-7.948-2.521-3.385-4.218-8.059-2.738-12.519 2.132-2.862 5.748-3.705 5.013-8.243 1.18-3.752 2.919-7.301 5.614-10.12 3.419-1.577 4.175-8.485 8.401-7.129 1.332-2.625 2.8-6.507 6.12-7.448 5.55-0.011 3.81-7.42 8.78-8.562 4.66 0.687 7.84-4.027 11.78-4.104 4.89 0.479 7.71-5.414 12.73-4.274 3.37 2.434 6.05 1.835 9.41-0.453 3.61-3.201 8 0.037 10.59 2.127 4.32 0.545 10.55-0.743 13.49 2.939 2.05 2.75 8-3.35 10.04 1.15 2.9 0.202 6.16-0.347 8.92 1.158 2.9 2.309 8.09 3.856 11.26 1.411 3.56-3.018 9.3-2.137 12.76 0.756 4.13 0.446 7.88 2.266 11.33 4.21 3.2 3.313 2.51 8.843 6.98 11.185 3.27 2.619 2.54 7.151 2.96 10.252 3.62 1.741 6.66 6.362 4.41 10.226 3.73 2.361 5.21 7.488 3.76 11.628-0.83 2.545-2.07 5.194-4.07 6.656 4.53 2.463 0.48 8.03 0.53 10.557 4.04 1.752 3.9 5.777 0.91 8.741-0.61 2.359-0.93 5.389-1.14 7.509 4.89 1.25 7.82 6.11 6.99 11.03-0.44 3.8-1.33 7.85-0.61 11.79 0.65 4.02 1.35 8.31-1.01 11.87-1.45 4.37-6.85 4.62-10.36 3.55-2.74-1.77-1.32 6.06-1.91 8.02-0.38 3.55-1.67 7.44-1.87 10.69-0.31 3.01-2.08 7.03-3.15 9.43-1.58 3.71-2.56 7.58-4.52 11.21-1.06 3.37-3.95 5.58-5.97 8.44-1.68 2.6-3.15 4.77-5.66 6.66-3.96 4.18-8.23 8.06-13.13 11.12-4.07 1.87-2.38 5.48-2.21 8.94-0.35 4.87 3.57 8 7.07 10.66 3.34 2.65 6.98 4.87 10.56 7.09 3.42 1.69 6.28 4.24 9.04 6.62 3.68 2.46 7.46 4.71 10.88 7.53 6.37 3.64 10.08 10.15 13.43 16.39 3.77 5.44 4.15 12.29 4.95 18.65 1.03 7.37 2.61 14.7 2.82 22.18 0.92 4.75 1.19 9.52 1.89 14.33 0.77 4.65-0.19 9.91 1.86 14.16-1.06 4.12-7.21 4.69-10.81 6.38-1.87 1.37-6.79 0.09-6.74 3.07-0.53 4.54-1.15 9.26-1.63 13.71-1.39 3.69-0.97 7.3-1.67 11.09-0.48 7.39-0.39 14.85 0.08 22.22-0.44 5.63-0.49 11.23-1.37 16.81-1.96 3.33-1.73 6.58-3.6 9.62-1.86 3.23-2.82 7.32-5.78 9.79-3.61 2.79-8.23 4.14-12.65 5.02-3.22 1.22-9.96-2.68-8.36 3.2-1.52 3.76 1.34 10.73-2.89 12.27l-0.22-0.15zm7.92-20.17c4.15 0.07 8.16-1.34 10.99-4.47 3.14-2.14 5.29-5.5 7.1-8.85 1.82-3.96 2.88-8.07 2.95-12.46 0.21-3.39 1.02-8.16 0.17-10.76-3.63 1.27-7.23 3.1-11.14 2.9-1.03 2.48 1.52 7.29 1.55 10.62 2.1 2.82-0.4 7.31-3.29 4.35-0.84-4.54-1.74-8.74-2.17-13.28-0.91-5.8-2.41-11.41-3.44-17.19-1.36-4.05-2.34-8.24-3.52-12.19-0.87-3.78-2.07-7.98-4.31-10.7 0.35-2.85-2.3-5.97-3.13-8.61-1.39-2.95-2.48-4.17-3.35-7.13-1.78-2.95-2.65-6.04-4.13-9.1-1.71-3.14-2.4-6.64-4.08-9.67-0.33-1.77-1.36-3.26-1.84-5.1-0.72-2.59-1.42-4.72-2.07-7.47-0.89-4.15-2.41-8.12-2.93-12.33-1.93-4.75 2.8-8.56 3.84-12.92 1.55-3.38 3.66-6.98 4.32-10.79 0.44-3.31 0.2-7.76-0.73-11.37-0.84-5.26-3.98-9.99-3.87-15.45 0.13-3.6 0.93-5.07 1.37-8.57 1.15-4.3 1.99-8.52 1.33-12.72-1.64-3.32-6.41-2.23-6.87 1.57-2.71 3.76-1.48 8.93-1.9 13.25 0.26 2.46-0.49 6.35 0.25 8.93-0.09 2.27 3.46 8.94-0.79 7.79-1.97-3.82-1.77-8.24-1.95-12.5 0.04-5.57-0.27-11.2 0.87-16.68-1.48-3.29-0.81-6.58-1.52-10.06-0.73-5.9-0.7-11.93-2.29-17.68-0.5-4.25-8.75-5.23-9.96-0.94-1.94 4.54-2.24 9.72-1.94 14.71 1.1 3.89 1.86 7.09 1.85 11.29-0.05 2.07 1.59 9.56-1.88 8.53-2.31-4.17-8.86-2.86-10.37 1.72-0.7 6.55-7.59 0.55-10.95 3.82-0.29 3.65-4.87 5.84-5.12 10.04-1.23 5.16-0.98 10.83 1.4 15.62 1.63 3.27 2.57 7.05 4.44 10.06 1.45 3.75 5.74 6.79 5.58 11.47 1.27 5.01 6.47 7.9 7.25 13.13 1.44 3.75 0.55 8.15 1.83 11.72-0.37 3.61-0.26 7.43-0.17 10.81 0.18 5.95 1.34 11.79 2.33 17.61 0.68 5.11 2.33 10.09 3.08 15.21 0.85 3.17 2.08 6.96 2.98 10.41 1.62 3.93 2.98 7.91 4.51 11.92 1.27 2.96 2.88 6.09 4.01 9.03 2.09 3.35 2.79 7.68 5.33 10.55 0.82 3.08 4.21 6.12 4.97 8.31 1.18 3.02 3.73 5.62 4.86 8.71 2.23 3.34 5.29 6.41 8.32 9.22 2.94 3.08 6.11 7.1 10.91 5.72l0.65-0.02 0.67-0.01zm13.74-2.46c2.16-2.4-3.21 2.84 0 0zm-3.65-36.37c3.16 1.07 7.36-0.9 10.12-2.76 2.59-2.28 1.68-6.47-1.68-7.4-2.98 1.32-6.86 1.31-9.47 2.33 0.18 2.4-1.15-2.16-2.06 0.55 0.59 2.23 0.75 7.39 2.27 7.85l0.82-0.57zm-53.2-0.66c0.29-3.61-3.46-8.63-4.2-12.93-1.25-4.27-2.85-8.39-3.5-12.67-4.46 1.61-8.99-1.97-13.57-2.02-6.71-1.32-13.27-3.16-19.97-4.54-4.44-0.97-8.83-1.83-13.15-3.31-4.73-1.75-9.85-1.93-14.586-3.71-3.817-1.08-8.176-1.36-11.429-2.78-5.719-1.57-11.658-2-17.282-3.94-4.281-0.89-10.452-2.51-10.22-8.01-0.697-2.48-0.261-4.99-2.742-6.25 0.592-4.24-0.382-8.17 0.559-12.42 0.627-4.2 0.794-8.48 1.736-12.6-0.659-2.83 4.092-10.11-1.261-7.47-4.243-1.91-8.64-3.18-13.205-4.15-2.339-0.05-6.559-4.15-6.979 0.13-1.707 3.48-2.601 7.01-2.889 10.65-1.135 4.35-1.008 8.81-2.512 13.07 0.167 3.58-0.956 7.11-0.653 10.62-1.14 3.94-0.825 8.37-1.103 12.51 0.046 5.77 0.064 11.64 1.508 17.24 2.01 4.15 2.446 8.87 4.756 12.95 1.691 4.5 4.074 10.43 9.377 11.33 5.962 1.62 12.245 0.57 18.263 1.92 6.654 0.88 13.349 1.15 20.063 1.2 9.696 1.3 19.519 0.94 29.249 1.86 5.16 0.48 10.32 1.14 15.45 1.81 9.59 0.79 19.29-0.1 28.85 1.15 3.14 0.16 6.29 0.53 9.44 0.36zm3.85-4.49c-0.94-4-1.77 0.65 0 0zm45.89-4.97c4.39-1 9.43-0.43 13.18-3.49 4.33-3.79-2.66-7.74-6.03-5.19-2.95 1.59-10.88 0.71-8.52 6 1.06 0.2 0.32 3.47 1.37 2.68zm-1.93-8.61c3.19-0.78 6.56-1.95 9.6-2.68 4.22 0.07 7.13-5.36 1.71-6.69-4.07 2.55-8.86 3.81-13.51 4.87 0.04 0.97 0.26 6.16 2.2 4.5zm18.18-3.21c0.66-2.69-1.11 1.15 0 0zm-19.81-3.91c3.29-1.13 8.36-1.1 10.23-4.04 2.42-0.65 6.24-1.72 1.73-3.26-4.25-1-8.81-0.79-12.75 0.59-4.2-0.74-2.09 7.59 0.79 6.71zm20.1-4.73c-0.09-5.92 1.09-11.77 2.06-17.57 0.91-4.32 3.58-11.52-3.69-10.14-7.44-0.15-14.89 0.18-22.31-0.53-4.02 0.39-7.75 0.57-11.83-0.08 0.92 4.29 3.78 8.13 5.63 12.19 1.83 3.21 2.76 6.76 4.68 10.02 2.3 4.01 8.68-1.6 12.74-0.73 4.34-0.47 11.74 1.77 10.13 7.18 1.33 1.71 2.98 6.23 2.57 1.34l0.01-0.81 0.01-0.87zm-74.4 0.44c-1.18-3.75-1.21-7.91-2.88-11.44-1.08-3.94-3-7.81-2.09-12.12-1.04-3.44 0.23-6.58 0.03-10.06-0.68-8.33 0.07-16.89-0.84-25.06-2.36-3.23-4.46-7.02-6.85-9.84 0.4-4.85-2.91-8.83-5.05-12.89-2.02-3.84-5.2-7.46-5.8-11.88-0.89-3.12-1.37-6.72-2.52-9.55 0.74-4.51-1.13-9.83 2.26-13.69 2.63-2.06 1.44-3.62 3.66-5.58-4.13-1.48-7.73-5.38-9.64-9.24-1.28-3.58-1.23-7.95-0.18-11.65 1.85-3 2.85-6.71 6.13-8.63-2.85-1.02-7.43 0.15-10.9 0.09-7.01 0.5-14.65-0.3-20.96 3.26-4.52 1.71-9.41 2.79-13.572 5.47-4.306 1.09-7.74 3.98-11.801 5.61-4.254 1.7-7.496 5.12-11.561 7.21-2.499 1.16-3.548 3.52-5.581 5.07-3.034 3.24-6.33 6.43-8.302 10.46-2.291 3-4.083 6.48-6.212 9.75-2.006 2.96-3.487 6.78-5.183 10.14-1.904 4.1-3.376 8.36-4.686 12.73-1.08 3.26-5.621 9.37 0.838 9.28 4.91 1.23 9.601 3.7 14.68 4.02 2.758 0.15 7.817 5.31 8.761 2.42 0.465-4.03 1.601-8 2.507-12.07 0.823-3.15 1.782-7.01 2.882-10.41 0.803-4.07 2.298-8.3 3.93-12.01 1.377-3.91 3.625-7.47 4.907-11.36-0.622-2.42 5.166-7.96 4.378-4.29-1.372 4.1-1.765 8.43-3.371 12.44-0.874 3.41-2.239 7.88-3.196 11.7-0.938 3.03-1.219 6.22-2.488 9.01-1.3 4.23-1.988 8.54-2.934 12.84-0.295 3.71-1.413 8.33-1.469 12.55-0.544 3.91-1.824 8.18-1.225 11.94-0.698 4.24 0.079 8.66-0.169 12.97 0.074 3.72-0.21 7.87 0.316 11.13 2.837 2.8 8.661 1.28 12.634 2.02 7.516 1.61 15.534 0.88 22.647 4.18 5.25 1.88 10.8 2.71 15.98 4.78 5.61 0.93 11.09 2.41 16.31 4.68 7.01 1.98 14.2 3.3 21.35 4.61 1.61 0.4 3.81 1.37 5.26 1.41zm77.38-4.07c-0.29-1.06-0.62 2.69 0 0zm0.16-1.16c-0.31-0.95-0.52 1.59 0 0zm0.18-1.16c0.36-2.22-1 1.2 0 0zm0.46-3.91c0.02-0.97-0.68 1.15 0 0zm5.67-9.91c2.93-1.19 8.85-1.55 9.79-4.02-2.74-1.63-8.34-4.36-10.43-2.86-0.48 3.15-0.71 4.12-1.26 7.41 0.65-0.1 1.25-0.4 1.9-0.53zm10.61-9.9c-0.7-1.55 0.51 2.48 0 0zm-2.96 0.18c-0.06-3.38-0.86-7.05-0.38-10.64-0.6-4.03-0.75-7.71-1.18-11.73-0.48-4.16-0.73-8.44-0.96-12.5 0.25-2.97-0.88-5.58-0.41-8.11-0.67-3.75-0.84-7.81-2.4-11.4-0.99-1.77-1.15-3.85-2.47-6.13-1.96-3.56-4.22-7.1-6.93-9.91-1.14-2.26-3.36-4-5.15-6.01-2.39-2.85-5.31-4.65-8.39-6.37-4.41-2.05-8.19-4.89-12.44-7.21-5.02-3.31-9.83-6.89-14.25-11.07-1.4-1.92-1.31 4.45-2.05 5.88-0.54 2.96-1.76 6.3-1.8 9.77 0.09 4.93 1.85 9.45 2.59 14.26 2.43 5.06 2.36 10.8 1.28 16.2-0.78 4.5-2.83 8.28-4.6 12.47-1.28 0.68-3.79 1.74-0.94 1.37-1.23 4.26-3.18 8.87-0.85 13.23 1.79 4.23 2.74 8.88 3.89 13.33 0.04 2.05 1.38 9.24 2.19 3.46 1.38-7.53 0.57-15.41 2.76-22.8 0.37-4.22 4.1-2.33 2.31 0.91 0.14 4.74-0.86 9.36-1.36 14.05-1.27 4.96-1.27 10.12-1.32 15.19 4.42 0.83 9.3-0.42 13.88 0.36 5.35 0.83 10.52 1.57 15.95 1.54 4.24 0.45 8.51 0.15 12.69-0.43 3.51-0.39 7.84 1.8 10.34 2.29zm-188.6-9.22c-0.502 2.11 0.27 4.19 0.069 0.52l-0.069-0.52zm132.61 1.05c-0.54 0.16 0.62 1.07 0 0zm-132.67-1.8c-0.725-1.3 0.236 1.56 0 0zm0.166-1.96c-0.668-1.66-0.36 1.8 0 0zm188.99-18.94c-0.7-2.3-0.01 2.14 0 0zm-108.52-63.18c2.37-1.16-3.44-3.87-3.77-5.86-2.5-4.04-0.81-9.57-0.47-13.99-0.26-2.07 2.12-8.13-1.72-3.96-1.93 2.72-5.05 6.79-4.36 9.67-1.26 4.04 1.43 9.17 4.97 11.75 1.9 0.57 3.13 3.92 5.35 2.39zm7.76-0.34c1.5-4.06 4.82-7.95 9.43-7.57 5.81 3.29 2.99-5.58 2.79-8.68-1.39-3.59-7.39-3.48-10.8-5.07-2.48-0.44-6.97-4.03-8.33-2.32 1.15 2.07 1.67 1.52-0.2 3.07-0.52 4.49-2.88 9-1.7 13.52 2.29 2.62 5.76 6.64 8.81 7.05zm33.32-14.24c1.84-2.78 7.97 1.14 8.03 0.07-0.58-2.42 0.2-7.81-3.32-3.78-1.72 2.95-7.43-0.56-7.43 1.68 0.83 2.61-0.58 7.14 2.72 2.03zm-0.96-6.27c4.49-1.9 5.91-7.66 11.04-8.41 5.03-1.42 7.93-6.28 11.96-9.29 2.51-2.61 5.26-5.23 7.77-8.06 3.02-3.72 5.26-7.86 7.7-11.97 1.86-3.82 3.68-7.73 4.25-11.88 0.95-5.25 2.15-10.5 2.41-15.83 0.35-3.53 0.48-7.52 0.42-11.38 0.01-6.57-0.57-13.14-1.66-19.57-0.96-4.71 1.05-9.74 4.78-12.72 3.19-3.11 3.12-7.196 3.02-10.781 5.43-3.205-2.17-6.649 0.67-11.048 2.03-2.818-4.92-5.3 0.91-7.53 3.2-2.968 2.12-9.592-0.89-11.847-2.69-1.573 0.56-5.438-2.62-7.587 0.63-3.794-3.77-6.204-4.56-10.009-0.11-2.769 0.16-4.304-2.83-5.104-0.07-4.126-4.89-5.458-4.24-9.72-4.5-0.582-8.02-3.859-12.23-4.941-3.56-3.483-6.36 1.11-9.28 2.25-4.21-1.138-9.97 0.112-12.59-4.236-3.33-2.944-9.27 2.59-11.3-2.047-4.83 1.649-9.22 0.012-13.64-1.591-4.67 0.881-8.68-2.033-12.96-1.242-3.71 0.111-8.15 6.014-10.76 1.092-3.39-1.718-6.74 2.357-9.18 3.876-3.8-2.516-6.61 2.231-9.49 2.432-3.75 0.951-7.47 1.478-9.57 5.41-3.13 1.054-6.65 2.401-8.43 4.91-0.56 2.767-0.33 6.995-4.653 5.117-3.121 3.398-4.195 8.304-7.705 11.313-1.786 1.597-4.902 5.632-2.949 7.829 3.291 2.993-4.803 4.324-2.889 7.432 0.406 4.589 2.389 8.98 0.288 13.452-1.2 4.785 2.145 8.07 4.702 11.466 0.099 4.119 0.333 6.764 3.623 9.854 1.625 3.14 5.506 3.94 5.478 8.49 1.305 7-6.701 3.79-10.606 4.2-3.33-0.25-6.573 2.63-5.976 5.7-1.867 3.2-0.61 7.08-0.417 10.53 0.996 4.83 4.232 10.48 9.901 10.23 2.843 0.37 9.453-5.51 9.553 0.2-1.337 5.87 1.22 11.56 2.38 17.22 1.58 3.74 2.55 7.7 4.97 10.89 1.33 3.44 4.14 6.07 5.93 9.14 2.82 3.73 5.81 7.36 9.24 10.56 2.56 2.89 5.61 5.85 9.05 8 5.4 4.21 11.19 8.08 17.89 9.85 3.72 1.34 6.9 2.84 10.84 2.64 3.33 0.69 0.2-6.05 1.77-8.14 0.51-3.72 1.5-8.06 4.99-10 4.07-0.9 10.34-0.32 11.39 4.62 1.63 5.29 1.57 11.16 2.18 16.46 0.32 1.57 1.7 0.29 2.32-0.23zm-13.73-25.71c-4.62-1.06-0.46-4.31 2.48-2.8 3.66-0.92 9.52 1.79 10.89-2.78 3.72 1.41-0.45 6.93-3.93 5.56-3.14 0.11-6.31 0.37-9.44 0.02zm-19.21-2.5c-4.52-0.47-1.62-3.95 1.39-2.89 5.09-0.39 9.98-1.86 14.49-4.23 4.38-1.75 8.98-4.15 13.83-3.49 3.66 0.62 9.2 1.46 10.96-2.41 0.95-4.18 4.83 2.4 0.9 3.54-3.84 4.4-9.62 2.1-14.45 2.08-5.36 0.36-9.84 3.55-14.88 5.06-3.71 1.89-4.41 2.06-8.47 2.22-1.24 0.23-2.52 0.46-3.77 0.12zm21.37-26.78c-2.11-4.86 4.59-4.07 7.78-6.16 4.09-0.2 7.54-2.56 4.43-6.52-2.22-2.88-2.82-6.16-4.12-9.54-1.97-5.3-3.44-10.71-4.18-16.29-1.61-2.06 2.11-8 2.82-4.68-0.49 4.82 0.61 9.76 2.04 14.35 1.65 3.52 3.17 7.65 5.53 11.03 1.98 3.71 4.95 7.94 2.45 12.18-2.86 2.91-7.59 3.25-11.16 4.41-1.45-0.52-3.63 2.32-5.59 1.22zm-77.555-24.49c-2.336-2.25-5.589-4.08-8.322-5.44 1.193-4.22 8.406-1.25 10.248 1.47 4.229 1.63 0.378 5.27-1.926 3.97zm50.775-11.33c-4.94-0.26-3.93-8.47 1.33-6.04 6.02-0.51 2.72 6.87-1.33 6.04zm53.28-2.61c-4.85-2.03-0.92-7.35 3-5.96 5.51-2.32 4.73 5.64 0.15 5.95-0.99 0.32-2.18 0.56-3.15 0.01zm-73.29-9.97c-0.04-3.29 2.36-6.38 4.29-8.92 3.04-3.759 7.92-5.604 11.92-8.152 3.97 5.04-4.69 6.382-7.66 8.732-4.08 1.68-5.42 6.58-8.55 8.34zm-27.867-10.54c-1.599-2.141-3.483-3.532-1.889-6.594-0.032-3.521 6.156 2.288 2.194 3.023 1.598 0.726 4.732 2.631 1.231 3.641-0.43 0.32-1.184 0.39-1.536-0.07zm115.75-1.421c-3.71-2.026-8-3.022-12.41-2.909-6.07 1.439-3.53-7.889 0.81-5.405 5.36 0.405 11.35 2.559 14.07 7.44-0.14 1.112-1.66 1.204-2.47 0.874zm-9.47-5.48c-2.47-0.675 0.92 0.687 0 0zm-3.76-0.158c-1.33-0.145 0.44 0.406 0 0zm-109.6-12.432c-1.081-2.133-2.008-5.335 0.31-6.504-1.638-4.006 6.286-4.91 2.076-0.574 3.942 2.473 1.154 4.359-1.269 4.488 0.508 1.171 1.371 4.704-1.117 2.59zm138.18-5.724c-0.88-2.717 3.55-4.487 0.03-6.036-2.53-3.667 6.72-5.607 2.19-1.271 1.55 0.538 3.9 3.928 0.84 5.907-0.6 0.862-1.98 2.411-3.06 1.4zm-131.65-16.876c-3.966-4.463 1.789-6.633 4.841-8.52 1.72-3.937 4.26-1.442 2.35 1.542-1.27 3.678-9.029 0.939-5.852 7.244-0.439 0.298-1.005 0.063-1.339-0.266zm14.171-0.979c-1.57-3.026 3.06-6.082 5.86-6.478 4.01 0.208 1.85 9.022 0.39 3.863-0.58-4.399-6.22 1.095-5.52 3.043-0.31 0.117-0.66-0.116-0.73-0.428zm116.1-1.424c-3.09-1.474-4.65-5.427-6.24-7.112 1.92-1.949 11.09-1.398 6.01 1.296-5.16 1.381 7.04 5.119 0.23 5.816zm-95.62-13.385c-0.59-2.991 3.59-8.097 6.58-5.364 2.72 2.59-0.62 3.903-2.6 1.546-2.25 0.942-1.27 4.724-3.98 3.818zm78.82-1.483c-1.83-2.07-8.09 1.432-8.38-2.241 3.19-0.836 5.21-4.415 0.41-4.192-2.19 2.182-5.61-0.891-1.8-1.812 4.19-2.424 8 2.971 7.45 5.425 1.81-0.037 8.06-0.356 2.32 2.82zm-93.78-3.443c0-3.94 6.77-5.794 10.27-5.313 1.95 1.41 1.08 6.224-0.45 4.418-1.18-3.365-5.59 3.879-6.34-0.763-1.77 0.38-1.14 2.746-3.48 1.658zm61.04-3.357c-1.78-2.06 4.91-4.33 0.2-4.944-3.51-1.148-1.88 4.083-4.51 0.77-0.03-5.14 9.12-2.542 9.19 0.683 6.86 0.158-2.82 3.988-4.88 3.491zm-21.47-0.321c-3.49 0.558-6.93-3.041-2.54-4.993-0.94-3.417-5.67 2.253-7.36 1.238 0.49-3.663 6.96-5.947 9.64-3.059 0.51 2.604-3.14 5.114 1.34 4.313 4.28-3.058 2.28 4.135-1.08 2.501zm-19.09-5.124c-2.18-3.915 8.34-2.693 3-0.829-2.67-0.259-1.51 1.963-3 0.829zm28.16-1.25c-3.66-3.86 5.65-1.56 0 0zm26.03 184.24c0.02-0.96-0.68 1.15 0 0zm44.6-72.76c3.03-1.81 8.24-2.24 7.83-6.85 0.07-4.04-2-7.54-1.73-11.72-0.43-3.42 0.05-5.72-1.24-8.86-3.52-4.8-11.21-0.24-8.61 5.24 0.58 2.15-0.49 5.7 2.66 2.94 4.53-0.58 5.67 7.33 1.99 8.93-2.86-1.08-1.34-4.78-3.46-1.77 0.95 3.72-0.65 10.3 2.01 12.22l0.55-0.13zm-156.78-18.68c0.166-2-1.134 3.13 0 0zm1.541-3.57c2.237-2.11 1.308-2.68-0.242-0.33-0.835 1.61-0.775 2.45 0.242 0.33zm7.918-12.67c-1.22-0.85 0.258 0.79 0 0zm-6.432-18.608c-0.784 0.546 0.456 1.923 0 0zm-0.038-1.126c0.352-1.671-1.198 1.443 0 0zm-0.441-16.209c-0.706-0.74-0.073 0.794 0 0zm0.024-1.089c-0.449 0.166 0.317 1.08 0 0zm143.55-33.294c-0.91-3.401-0.55 1.617 0 0zm-111.18-7.727c-1.25 0.092-0.23 0.655 0 0zm9.3-3.214c0.58-0.821-3.87 1.668-0.54 0.272l0.54-0.272zm6.91-1.586c1-1.245-2.45 1.754 0 0zm1.53-1.19c-1.25 0.092-0.23 0.655 0 0zm1.41-0.779c2.02-1.801-3.2 1.507 0 0zm2.93-1.259c4.44-1.027-5.26 0.877-0.6 0.124l0.6-0.124zm11.57-0.472c-1.33-0.145 0.43 0.406 0 0zm3.09-0.563c5.51-0.45-3.85-1.201-1.41 0.318l0.89-0.144 0.52-0.174zm-111.76 200.53c-3.2-1.43-7.488-4.8-4.305-8.41 1.244-4.22 7.915-5.87 11.04-3.01 4.589 3.58 0.804 10.01-3.789 11.36-0.931 0.39-1.998 0.38-2.946 0.06zm3.946-4.15c3.291-0.9 1.504-6.1-1.634-4.53-3.871-2.29-5.064 7.46 0.075 5.09l0.784-0.23 0.775-0.33zm-12.438-11.24c-4.946 0.74-3.007-6.21-1.563-8.84 0.804-2.46 0.019-3.52 2.793-5.17 1.486-2.84 4.359-4.88 6.365-7.42 2.174-2.49 5.657-3.64 6.115-7.83 0.909-5.06-4.902-8.1-9.191-8.21-6.358-0.66-7.606 7.52-3.841 11.3 1.052 4.82-6.653 5.15-9.98 6.57-4.849 3.9-11.757-0.08-10.422-6.32 0.083-4.06 0.41-8.3 1.715-12.12 2.182-4.04 5.337-7.75 9.704-9.56 8.25-4.15 18.372-4.95 27.029-1.41 4.151 2.56 8.291 5.32 9.699 10.3 2.296 4.66 1.025 9.91-0.278 14.67-1.4 2.2-1.922 4.44-3.617 6.51-2.658 2.97-5.318 6.06-8.896 8.05-4.456 0.18-0.434 5.31-5.082 5.33-3.496 0.78-7.109 4.48-10.55 4.15zm3.561-5.26c2.392-1.46 7.296-0.9 5.723-4.68 3.17-2.47 7.713-3.67 9.547-7.61 3.244-2.03 4.476-5.79 6.373-8.95 1.843-3.28 2.307-7.49 0.611-10.13-0.36-3.33-3.951-4.71-6.406-6.42-3.936-2.43-8.31-4.05-12.979-3.98-6.891-0.09-13.893 2.62-18.753 7.48-2.625 2.69-4.455 6.48-3.474 10.12-0.483 4.44 3.475 8.87 7.413 5.71 3.004-0.82 6.3-2.39 2.974-5.26-2.485-2.65-2.111-6.07 0.162-8.89 2.737-3.33 6.617-5.08 10.943-4.5 1.676-0.15 3.324-0.16 4.756 0.85 3.819 1.78 7.917 4.95 7.874 9.51 1.612 3.74-0.59 7.91-3.229 10.74-2.706 2.5-5.461 5.05-8.398 7.07-2.071 1.98-4.426 4.59-5.171 6.77 0.179 2.04-0.885 4.24 2.034 2.17zm246.29-29.18c-3.3-1-6.35-6.28-4.18-9.19 1.8-4.29 8.23-6.26 11.39-2.23 1.33 1.68 1.89 3.48 0.58 5.6-1.17 3.58-3.3 7.83-7.79 5.82zm4.19-4.06c3.28-3.47-3.31-6.61-5.04-3.31-3.07 1.35 3.87 5.22 5.04 3.31zm5.12-16.62c-3.93-0.79-10.39 0.96-12.57-2.34-2.02-4.25 1.49-8.61 2.84-12.6 2.67-3.14 6.8-5.38 11-5.22 4.88 0.25 9.34-0.56 14.07-1.29 2.83-1.21 7.59-4.7 6.76-9.24 0.11-4.48-3.06-7.52-6.66-9.21-4.06-1.65-9.43-2.33-12.7 1.28-2.1 1.66-1.93 8.16-5.57 6.34-3.85-1.16-7.26-3.35-10.89-5.02-0.99-3.29-2.1-8.5 0.36-12.229 2.28-3.822 5.96-6.981 10.1-8.56 6.33-1.888 13.12-1.486 19.45 0.144 3.63 0.537 7.99 2.788 12.12 3.765 4.11 1.678 7.89 3.764 11.26 6.67 3.85 3 5.54 7.67 5.93 12.39 0.96 3.76-0.07 7.5-0.92 11.43-2.16 6.52-8.22 11.09-14.51 13.3-8.65 3.64-18.04 5.07-27.32 6.09 0.11 2.14 0.8 5.03-2.75 4.3zm-0.53-3.58c-1.12-2.11-0.67-4.82 2.24-5.54 4.86-0.01 9.65-0.32 14.48-0.71 7.04-1.22 14.3-2.74 20.23-6.91 2.58-2.62 5.39-5.99 5.27-10.05 0.72-3.04 1.03-6.76-0.13-9.53-0.77-2.74-1.75-5.77-4.5-7.12-2.06-1.58-4.09-3.64-6.58-5.454-3.9-2.317-8.31-3.633-12.66-4.865-4.47-0.618-9.05-1.35-13.41-1.373-6.29-0.535-14.05 1.915-15.87 8.652-1.36 4.45 3.72 7.35 7.5 7.85 3.21 1.15 1.11-4.83 4.75-5.14 3.54-2.95 8.5-3.22 12.92-2.27 3.42 1.5 7.19 2.63 9.37 5.42 2.18 2.12 3.8 5.57 3.17 7.9 0.32 4.41-0.82 9.62-4.92 12.12-3.07 1.5-6.27 3.67-10.05 3.61-5.35 0.3-10.72 0.92-15.96 1.86-3.44 2.21-4.98 6.32-4.9 10.07-0.02 2.19 4.37 0.6 5.74 1.06 0.92 0.23 2.56 0.94 3.31 0.42z"/>
  </g>
  <metadata>
    <rdf:RDF>
      <cc:Work>
        <dc:format>image/svg+xml</dc:format>
        <dc:type rdf:resource="http://purl.org/dc/dcmitype/StillImage"/>
        <cc:license rdf:resource="http://creativecommons.org/licenses/publicdomain/"/>
        <dc:publisher>
          <cc:Agent rdf:about="http://openclipart.org/">
            <dc:title>Openclipart</dc:title>
          </cc:Agent>
        </dc:publisher>
        <dc:title>thinkingboy outline</dc:title>
        <dc:date>2006-10-15T19:26:52</dc:date>
        <dc:description>an image from the US government EPA "Sunwise" program. I converted it from PDF format. the source link is here - http://www.epa.gov/sunwise/doc/poster.pdf</dc:description>
        <dc:source>http://openclipart.org/detail/630/thinkingboy-outline-by-ryanlerch</dc:source>
        <dc:creator>
          <cc:Agent>
            <dc:title>ryanlerch</dc:title>
          </cc:Agent>
        </dc:creator>
        <dc:subject>
          <rdf:Bag>
            <rdf:li>boy</rdf:li>
            <rdf:li>cartoon</rdf:li>
            <rdf:li>clip art</rdf:li>
            <rdf:li>clipart</rdf:li>
            <rdf:li>coloring book</rdf:li>
            <rdf:li>contemplate</rdf:li>
            <rdf:li>dilemma</rdf:li>
            <rdf:li>epa</rdf:li>
            <rdf:li>epa sunwise</rdf:li>
            <rdf:li>line art</rdf:li>
            <rdf:li>male</rdf:li>
            <rdf:li>outline</rdf:li>
            <rdf:li>question mark</rdf:li>
            <rdf:li>think</rdf:li>
            <rdf:li>thinking</rdf:li>
          </rdf:Bag>
        </dc:subject>
      </cc:Work>
      <cc:License rdf:about="http://creativecommons.org/licenses/publicdomain/">
        <cc:permits rdf:resource="http://creativecommons.org/ns#Reproduction"/>
        <cc:permits rdf:resource="http://creativecommons.org/ns#Distribution"/>
        <cc:permits rdf:resource="http://creativecommons.org/ns#DerivativeWorks"/>
      </cc:License>
    </rdf:RDF>
  </metadata>
</svg>
